<?xml version="1.0" standalone="no"?>
<!DOCTYPE svg PUBLIC "-//W3C//DTD SVG 20010904//EN"
 "http://www.w3.org/TR/2001/REC-SVG-20010904/DTD/svg10.dtd">
<svg version="1.0" xmlns="http://www.w3.org/2000/svg"
 width="1080.000000pt" height="1080.000000pt" viewBox="0 0 1080.000000 1080.000000"
 preserveAspectRatio="xMidYMid meet">

<g transform="translate(0.000000,1080.000000) scale(0.100000,-0.100000)"
fill="#000000" stroke="none">
<path d="M7776 7438 c-45 -73 -146 -261 -142 -265 2 -3 14 14 26 37 l21 42 77
-7 c116 -9 117 -10 132 -55 7 -23 18 -44 23 -47 6 -4 8 0 4 9 -3 9 -29 82 -58
162 -28 80 -56 146 -60 146 -5 0 -15 -10 -23 -22z m55 -93 c16 -43 29 -82 29
-87 0 -7 -150 0 -158 8 -7 5 83 164 92 161 4 -2 21 -38 37 -82z"/>
<path d="M7178 7431 c-31 -3 -60 -9 -64 -13 -6 -7 10 -222 22 -276 5 -22 8
-23 57 -17 87 11 126 24 162 56 65 58 66 145 2 207 -30 29 -86 54 -112 51 -5
-1 -36 -5 -67 -8z m126 -25 c52 -22 76 -60 76 -122 0 -88 -43 -124 -167 -139
-49 -6 -52 -5 -57 17 -5 21 -26 217 -26 238 0 8 37 15 108 18 18 1 47 -4 66
-12z"/>
<path d="M8500 7334 c0 -5 9 -58 20 -117 19 -106 19 -108 0 -152 -10 -24 -15
-47 -10 -50 4 -3 11 8 15 25 4 16 17 45 30 64 21 31 21 35 6 39 -13 3 -20 24
-30 89 -11 71 -30 137 -31 102z"/>
<path d="M6645 7286 c-44 -19 -83 -63 -96 -107 -24 -79 42 -174 130 -186 50
-7 122 26 153 70 31 43 32 124 2 164 -49 67 -121 89 -189 59z m133 -26 c84
-51 79 -185 -9 -232 -71 -38 -155 -14 -189 56 -25 52 -25 81 -2 124 37 70 131
94 200 52z"/>
<path d="M8693 7224 l-28 -25 33 22 c17 13 32 24 32 26 0 8 -11 1 -37 -23z"/>
<path d="M8639 7183 c-13 -16 -12 -17 4 -4 9 7 17 15 17 17 0 8 -8 3 -21 -13z"/>
<path d="M8599 7153 c-13 -16 -12 -17 4 -4 9 7 17 15 17 17 0 8 -8 3 -21 -13z"/>
<path d="M8927 7006 c-43 -67 -77 -125 -77 -128 0 -3 6 -8 14 -11 9 -4 12 0 9
11 -2 9 17 48 42 86 25 38 45 72 45 75 0 3 14 22 30 41 23 28 31 33 41 23 7
-7 18 -13 24 -13 10 0 -35 39 -46 40 -3 0 -40 -56 -82 -124z"/>
<path d="M6217 7084 c-4 -4 -7 -66 -7 -137 0 -129 0 -129 -22 -124 -22 6 -22
6 -4 -8 42 -31 46 -22 46 100 0 85 3 115 13 115 6 0 36 -43 66 -95 29 -53 55
-94 58 -91 5 4 -112 212 -132 234 -6 7 -14 9 -18 6z"/>
<path d="M9084 7072 c10 -12 26 -24 36 -27 39 -12 64 -120 38 -168 -41 -78
-121 -94 -220 -44 -29 15 -44 20 -33 11 41 -32 100 -56 137 -56 99 2 176 119
133 202 -18 35 -57 75 -90 92 -20 11 -20 11 -1 -10z"/>
<path d="M5972 6918 c8 -13 41 -69 73 -125 32 -57 60 -101 63 -99 2 2 -17 40
-41 83 -25 43 -48 88 -51 100 -7 20 -5 21 23 13 17 -5 35 -11 41 -15 5 -3 10
-4 10 -2 0 8 -108 67 -121 67 -8 0 -7 -8 3 -22z"/>
<path d="M6100 6866 c0 -3 14 -12 30 -21 17 -9 30 -13 30 -11 0 3 -13 12 -30
21 -16 9 -30 13 -30 11z"/>
<path d="M9435 6756 c-42 -21 -59 -36 -84 -76 -26 -43 -27 -80 -2 -128 30 -59
93 -102 149 -102 74 0 161 102 147 172 -21 100 -133 171 -210 134z m133 -35
c34 -24 62 -77 62 -118 0 -38 -33 -89 -72 -113 -64 -39 -146 -16 -189 52 -15
25 -19 45 -16 81 9 105 129 160 215 98z"/>
<path d="M9880 6416 c0 -2 8 -10 18 -17 15 -13 16 -12 3 4 -13 16 -21 21 -21
13z"/>
<path d="M9918 6368 c29 -29 12 -53 -98 -132 -60 -44 -108 -81 -105 -84 2 -2
54 32 115 77 60 44 113 81 117 81 3 0 15 -8 26 -17 11 -10 3 6 -17 35 -21 28
-41 52 -44 52 -3 0 -1 -5 6 -12z"/>
<path d="M10001 6253 c7 -12 15 -20 18 -17 3 2 -3 12 -13 22 -17 16 -18 16 -5
-5z"/>
<path d="M10023 5913 c-71 -2 -123 -8 -123 -13 0 -6 23 -10 50 -10 38 0 52 -4
57 -17 5 -14 8 -13 14 5 8 20 15 22 99 22 57 0 90 -4 90 -11 0 -19 -105 -138
-122 -138 -11 -1 -18 -9 -18 -20 0 -11 -12 -34 -26 -51 -15 -17 -25 -33 -23
-35 7 -7 202 238 203 254 1 18 -11 19 -201 14z"/>
<path d="M1391 5203 c-134 -306 -254 -580 -267 -610 l-24 -54 47 3 48 3 66
160 66 160 267 3 267 2 28 -62 c15 -35 47 -109 70 -165 l43 -103 95 0 c72 0
94 3 90 13 -7 17 -502 1145 -518 1180 -7 15 -17 27 -23 27 -6 0 -121 -250
-255 -557z m226 270 c9 -21 62 -152 119 -290 l103 -253 -240 0 c-153 0 -239 4
-239 10 0 9 48 127 202 498 16 39 32 72 34 72 3 0 12 -17 21 -37z"/>
<path d="M4750 5735 c-264 -60 -444 -222 -505 -455 -24 -90 -24 -265 -1 -345
50 -169 163 -289 337 -358 105 -42 164 -52 314 -51 136 0 210 9 308 40 47 15
47 16 47 59 l0 44 -59 -31 c-73 -38 -163 -57 -266 -58 -318 0 -516 211 -515
552 1 238 102 422 278 506 123 58 229 54 417 -17 l100 -38 8 55 c6 42 5 57 -5
63 -61 39 -345 60 -458 34z"/>
<path d="M6241 5740 c-197 -42 -357 -154 -433 -304 -48 -94 -69 -195 -70 -326
-1 -203 41 -319 157 -436 113 -114 245 -162 415 -150 109 8 176 26 276 76 208
102 311 274 321 535 8 199 -36 342 -138 450 -106 112 -206 155 -374 160 -60 2
-130 0 -154 -5z m221 -89 c165 -63 258 -245 260 -506 2 -251 -90 -451 -247
-533 -45 -24 -61 -27 -155 -27 -93 0 -112 3 -160 26 -141 67 -225 232 -237
469 -11 200 44 359 164 479 38 38 92 79 123 95 48 23 64 26 125 23 39 -3 96
-14 127 -26z"/>
<path d="M2740 5135 l0 -595 40 0 40 0 2 488 3 487 397 -497 c219 -274 405
-498 413 -498 13 0 15 73 15 605 l0 605 -40 0 -40 0 -2 -436 -3 -436 -345 436
-345 436 -67 0 -68 0 0 -595z"/>
<path d="M7490 5135 l0 -595 40 0 40 0 2 488 3 487 397 -497 c219 -274 405
-498 413 -498 13 0 15 73 15 605 l0 605 -40 0 -40 0 -2 -436 -3 -436 -345 436
-345 436 -67 0 -68 0 0 -595z"/>
<path d="M9080 5135 l0 -595 85 0 85 0 0 595 0 595 -85 0 -85 0 0 -595z"/>
<path d="M10224 5475 c-53 -32 -78 -81 -72 -145 5 -47 39 -110 61 -110 6 0 1
9 -11 20 -51 48 -52 147 -3 202 24 27 36 32 87 35 70 4 99 -8 132 -57 19 -28
23 -45 20 -87 -2 -34 0 -49 7 -42 17 17 9 85 -15 127 -26 46 -83 82 -131 82
-19 0 -53 -11 -75 -25z"/>
<path d="M10378 4971 c-131 -17 -195 -39 -78 -27 145 14 240 29 240 37 0 11
-1 11 -162 -10z"/>
<path d="M10360 4662 c-106 -58 -114 -211 -14 -273 78 -48 165 -25 212 56 74
129 -70 287 -198 217z m125 -16 c45 -19 75 -69 75 -126 0 -62 -28 -104 -83
-125 -124 -47 -232 77 -169 194 34 63 107 86 177 57z"/>
<path d="M2518 4443 c-14 -16 -42 -56 -63 -90 -36 -60 -40 -63 -77 -63 -58 0
-183 -28 -243 -55 -70 -30 -155 -89 -233 -160 -100 -91 -320 -395 -309 -428 2
-6 42 47 89 118 95 144 212 284 289 345 107 84 241 142 359 156 52 6 60 4 60
-10 0 -9 -42 -85 -93 -169 -188 -306 -269 -440 -507 -837 -134 -223 -273 -454
-310 -515 -62 -103 -219 -366 -340 -570 -29 -49 -60 -101 -68 -115 -9 -14 -11
-20 -5 -15 14 14 309 466 753 1155 62 96 148 229 190 295 43 66 129 200 191
297 300 468 300 468 321 468 65 0 191 -104 300 -247 118 -155 260 -199 443
-135 44 16 148 67 231 115 190 109 280 140 384 135 112 -5 160 -33 366 -211
110 -96 178 -129 276 -135 44 -3 98 1 125 8 51 12 174 72 288 139 162 95 304
129 406 96 66 -21 97 -39 219 -125 153 -109 169 -115 285 -115 l100 0 140 67
c157 75 216 93 279 86 68 -8 123 -40 224 -132 181 -165 263 -174 476 -53 116
66 173 87 246 87 67 0 83 -6 295 -98 126 -55 184 -62 614 -73 216 -6 396 -8
399 -5 3 3 2 9 -1 12 -4 4 -177 10 -384 15 -473 9 -495 13 -693 104 -212 98
-270 97 -460 -10 -143 -81 -196 -99 -262 -92 -65 8 -115 38 -218 132 -111 100
-173 130 -265 130 -73 -1 -99 -10 -325 -111 -76 -34 -94 -39 -165 -39 -98 0
-148 22 -289 125 -136 101 -202 130 -298 130 -102 0 -170 -23 -325 -108 -291
-161 -392 -183 -536 -114 -61 30 -95 55 -238 181 -195 171 -358 176 -629 18
-240 -139 -296 -161 -420 -162 -125 0 -164 25 -300 190 -112 135 -156 173
-232 201 -27 10 -48 22 -48 26 0 5 14 32 30 61 32 57 38 95 18 115 -18 18 -32
15 -60 -15z m42 -40 c0 -26 -58 -123 -73 -123 -6 0 -18 4 -26 9 -16 10 -8 26
46 99 26 35 53 42 53 15z m-93 -141 c13 -8 -66 -136 -134 -218 -44 -52 -41
-30 8 68 75 149 93 171 126 150z"/>
<path d="M10250 4113 c0 -5 54 -22 120 -38 66 -16 120 -34 120 -39 0 -6 -68
-42 -150 -80 -83 -38 -149 -71 -146 -73 6 -6 267 -72 285 -73 37 0 -11 17
-107 40 -75 18 -108 30 -110 41 -2 11 35 33 138 80 77 35 140 67 140 71 0 8
-31 17 -165 48 -49 12 -98 23 -107 26 -10 3 -18 1 -18 -3z"/>
<path d="M10091 3563 c-26 -55 -27 -71 0 -20 22 43 31 44 93 17 50 -21 55 -34
30 -81 -8 -17 -14 -33 -11 -35 2 -2 12 14 22 36 10 23 25 40 34 40 28 -1 101
-39 101 -53 0 -8 -14 -45 -31 -82 -16 -37 -29 -69 -27 -71 2 -2 21 35 42 82
21 46 37 86 35 88 -2 3 -63 31 -135 64 l-131 59 -22 -44z"/>
<path d="M10047 3465 c-24 -50 -20 -58 4 -12 11 22 19 41 17 43 -3 2 -12 -12
-21 -31z"/>
<path d="M10181 3403 c-10 -26 -10 -27 4 -9 8 11 15 23 15 28 0 15 -7 8 -19
-19z"/>
<path d="M4801 3256 c-15 -17 2 -56 23 -56 7 0 21 -9 31 -20 15 -17 16 -22 4
-36 -13 -16 -12 -16 9 -5 29 16 28 35 -5 60 -54 40 -55 42 -42 57 7 8 7 14 1
14 -5 0 -15 -6 -21 -14z"/>
<path d="M5030 3200 c0 -40 4 -70 10 -70 6 0 10 30 10 70 0 40 -4 70 -10 70
-6 0 -10 -30 -10 -70z"/>
<path d="M5202 3198 c2 -71 2 -71 5 -15 l4 58 45 -56 c25 -30 47 -55 50 -55 2
0 3 33 2 73 l-1 72 -6 -55 -6 -54 -40 52 c-21 29 -43 52 -47 52 -4 0 -7 -33
-6 -72z"/>
<path d="M5460 3243 c-22 -29 -21 -66 4 -91 11 -11 12 -5 9 35 -4 38 -1 53 12
66 9 9 12 17 6 17 -5 0 -19 -12 -31 -27z"/>
<path d="M5700 3200 c0 -40 4 -70 10 -70 6 0 10 30 10 70 0 40 -4 70 -10 70
-6 0 -10 -30 -10 -70z"/>
<path d="M5766 3263 c5 -5 12 -12 16 -18 4 -6 8 -2 8 8 0 9 -7 17 -17 17 -9 0
-12 -3 -7 -7z"/>
<path d="M6056 3241 c-4 -7 -5 -15 -2 -18 9 -9 19 4 14 18 -4 11 -6 11 -12 0z"/>
<path d="M6110 3229 c0 -12 -8 -31 -17 -42 -18 -20 -18 -20 10 -2 27 17 36 48
17 60 -6 3 -10 -4 -10 -16z"/>
<path d="M6270 3224 c-10 -25 -4 -70 9 -78 4 -3 7 20 7 50 0 30 -2 54 -3 54
-2 0 -8 -12 -13 -26z"/>
<path d="M6338 3194 c2 -30 8 -52 13 -48 14 8 11 80 -3 92 -10 8 -12 -1 -10
-44z"/>
<path d="M6490 3234 c0 -8 5 -12 10 -9 6 3 10 10 10 16 0 5 -4 9 -10 9 -5 0
-10 -7 -10 -16z"/>
<path d="M6546 3236 c3 -8 0 -25 -6 -38 l-12 -23 22 22 c22 21 22 53 1 53 -6
0 -8 -6 -5 -14z"/>
<path d="M6712 3238 c-17 -17 -15 -74 4 -92 20 -20 31 -21 14 -1 -7 8 -11 34
-8 60 2 25 3 45 3 45 -1 0 -6 -5 -13 -12z"/>
<path d="M6775 3196 c0 -42 3 -52 13 -44 6 6 12 23 12 37 0 15 -6 35 -12 44
-11 15 -13 9 -13 -37z"/>
<path d="M9907 3158 c-18 -18 -21 -23 -7 -12 14 12 34 26 45 32 11 6 14 12 7
12 -7 0 -27 -15 -45 -32z"/>
<path d="M4790 3156 c0 -8 7 -17 16 -20 23 -9 24 -4 2 17 -14 13 -18 14 -18 3z"/>
<path d="M5772 3145 c-11 -12 -10 -15 3 -15 8 0 15 7 15 15 0 18 -2 18 -18 0z"/>
<path d="M6093 3153 c-57 -5 -55 -23 2 -23 33 0 45 4 45 15 0 8 -1 14 -2 13
-2 -1 -22 -3 -45 -5z"/>
<path d="M6485 3143 c-3 -9 9 -13 40 -13 29 0 45 4 45 13 0 7 -15 12 -40 12
-23 0 -42 -5 -45 -12z"/>
<path d="M10055 3088 c-11 -6 -42 -29 -68 -50 -75 -58 -127 -50 -127 22 -1 29
-2 32 -11 17 -13 -22 -4 -52 24 -77 31 -29 48 -25 113 25 66 52 93 62 123 45
23 -12 29 -66 11 -101 -6 -10 -8 -19 -6 -19 10 0 36 58 36 79 0 17 -52 71 -68
71 -4 0 -16 -6 -27 -12z"/>
<path d="M10089 2923 c-13 -16 -12 -17 4 -4 16 13 21 21 13 21 -2 0 -10 -8
-17 -17z"/>
</g>
</svg>
